<?xml version="1.0" encoding="UTF-8"?>
<svg id="Layer_1" data-name="Layer 1" xmlns="http://www.w3.org/2000/svg" version="1.1" viewBox="0 0 497.37 497.37">
  <defs>
    <style>
      .cls-1 {
        fill: #fff;
        stroke-width: 0px;
      }
    </style>
  </defs>
  <path class="cls-1" d="M481.41,497.37H15.96c-8.8,0-15.96-7.16-15.96-15.96V162.29C0,72.8,72.8,0,162.29,0h319.12c8.8,0,15.96,7.16,15.96,15.96v465.45c0,8.8-7.16,15.96-15.96,15.96ZM31,466.37h435.37V31H162.29c-72.39,0-131.29,58.9-131.29,131.29v304.08Z"/>
  <g>
    <path class="cls-1" d="M211.38,346.45h-37.69c-5.59,0-10.34,4.1-11.16,9.63l-8.67,58.45c-.82,5.53-5.57,9.63-11.16,9.63h-30.1c-6.97,0-12.27-6.25-11.13-13.13l54.42-328.37c.9-5.45,5.61-9.44,11.13-9.44h52.06c5.52,0,10.23,3.99,11.13,9.44l54.42,328.37c1.14,6.87-4.16,13.13-11.13,13.13h-31.1c-5.59,0-10.34-4.1-11.16-9.63l-8.67-58.45c-.82-5.53-5.57-9.63-11.16-9.63ZM214.1,295.31l-21.56-146.89-21.56,146.89h43.12Z"/>
    <path class="cls-1" d="M339.18,73.21h30.57c6.23,0,11.28,5.05,11.28,11.28v328.37c0,6.23-5.05,11.28-11.28,11.28h-30.57c-6.23,0-11.28-5.05-11.28-11.28V84.5c0-6.23,5.05-11.28,11.28-11.28Z"/>
  </g>
</svg>