<?xml version="1.0" encoding="UTF-8"?>
<svg id="Layer_1" data-name="Layer 1" xmlns="http://www.w3.org/2000/svg" version="1.1" viewBox="0 0 517.37 517.37">
  <defs>
    <style>
      .cls-1 {
        fill: #4c4a4a;
      }

      .cls-1, .cls-2 {
        stroke-width: 0px;
      }

      .cls-2 {
        fill: #fff;
      }
    </style>
  </defs>
  <g>
    <path class="cls-1" d="M25.96,517.37c-14.31,0-25.96-11.65-25.96-25.96V172.29C0,77.29,77.29,0,172.29,0h319.12c14.31,0,25.96,11.65,25.96,25.96v465.45c0,14.31-11.65,25.96-25.96,25.96H25.96ZM466.37,466.37V51H172.29c-66.88,0-121.29,54.41-121.29,121.29v294.08h415.37Z"/>
    <path class="cls-1" d="M252.4,444.16c-10.47,0-19.52-7.81-21.05-18.16l-8.67-58.45c-.09-.63-.64-1.1-1.27-1.1h-37.72c-.63,0-1.17.47-1.27,1.1l-8.67,58.45c-1.54,10.35-10.59,18.16-21.05,18.16h-30.1c-6.27,0-12.18-2.74-16.23-7.52-4.05-4.78-5.79-11.06-4.76-17.25l54.42-328.37c1.7-10.31,10.53-17.81,21-17.81h52.06c10.46,0,19.29,7.49,21,17.81l54.42,328.36c1.02,6.18-.71,12.46-4.76,17.25-4.05,4.78-9.97,7.52-16.23,7.52h-31.1ZM212.52,295.31l-9.98-68.02-9.98,68.02h19.97Z"/>
    <path class="cls-1" d="M349.33,73.21h30.42c11.75,0,21.28,9.53,21.28,21.28v328.37c0,11.75-9.53,21.28-21.28,21.28h-30.57c-11.75,0-21.28-9.53-21.28-21.28V94.5c0-4.17,1.09-8.72,3.05-12.65,2.67-5.34,8.21-8.65,14.18-8.65h4.2Z"/>
  </g>
  <path class="cls-2" d="M501.41,497.37H35.96c-8.8,0-15.96-7.16-15.96-15.96V162.29C20,72.8,92.8,0,182.29,0h319.12c8.8,0,15.96,7.16,15.96,15.96v465.45c0,8.8-7.16,15.96-15.96,15.96h0ZM51,466.37h435.37V31H182.29c-72.39,0-131.29,58.9-131.29,131.29v304.08Z"/>
  <path class="cls-2" d="M231.38,346.45h-37.69c-5.59,0-10.34,4.1-11.16,9.63l-8.67,58.45c-.82,5.53-5.57,9.63-11.16,9.63h-30.1c-6.97,0-12.27-6.25-11.13-13.13l54.42-328.37c.9-5.45,5.61-9.44,11.13-9.44h52.06c5.52,0,10.23,3.99,11.13,9.44l54.42,328.37c1.14,6.87-4.16,13.13-11.13,13.13h-31.1c-5.59,0-10.34-4.1-11.16-9.63l-8.67-58.45c-.82-5.53-5.57-9.63-11.16-9.63h-.03ZM234.1,295.31l-21.56-146.89-21.56,146.89h43.12Z"/>
  <path class="cls-2" d="M359.18,73.21h30.57c6.23,0,11.28,5.05,11.28,11.28v328.37c0,6.23-5.05,11.28-11.28,11.28h-30.57c-6.23,0-11.28-5.05-11.28-11.28V84.5c0-6.23,5.05-11.28,11.28-11.28h0Z"/>
</svg>